<svg width="16" height="16" viewBox="0 0 16 16" fill="none" xmlns="http://www.w3.org/2000/svg">
<path d="M4.43798 9.88147C4.29724 9.72342 4.21431 9.52191 4.2029 9.31015V6.66942C4.21428 6.45763 4.29721 6.25608 4.43798 6.09808L4.6239 5.91122C4.68625 5.84843 4.72126 5.76335 4.72126 5.67465C4.72126 5.58594 4.68625 5.50086 4.6239 5.43808L2.65182 3.4557C2.58928 3.3931 2.50462 3.35796 2.41635 3.35796C2.32809 3.35796 2.24343 3.3931 2.18089 3.4557L1.43022 4.2102C1.36816 4.27314 1.33334 4.35815 1.33334 4.44676C1.33334 4.53537 1.36816 4.62039 1.43022 4.68333L2.83773 6.09802C2.97875 6.25589 3.06179 6.4575 3.07307 6.66936V9.31009C3.06183 9.52185 2.97877 9.7233 2.83773 9.88103L1.43022 11.2963C1.36816 11.3592 1.33334 11.4442 1.33334 11.5328C1.33334 11.6214 1.36816 11.7064 1.43022 11.7694L2.18089 12.5239C2.24343 12.5865 2.3281 12.6216 2.41635 12.6216C2.50461 12.6216 2.58927 12.5865 2.65182 12.5239L4.6239 10.5413C4.68624 10.4785 4.72126 10.3935 4.72126 10.3048C4.72126 10.2161 4.68624 10.131 4.6239 10.0683L4.43798 9.88147Z" fill="#FF00B8"/>
<path d="M9.85766 11.5461C9.70048 11.6875 9.50004 11.771 9.28933 11.7827H6.66274C6.4519 11.771 6.25129 11.6876 6.09392 11.5461L5.90844 11.3587C5.84568 11.2964 5.761 11.2614 5.67276 11.2614C5.58451 11.2614 5.49983 11.2964 5.43708 11.3587L3.46524 13.3411C3.40299 13.4041 3.36804 13.4892 3.36804 13.578C3.36804 13.6667 3.40299 13.7519 3.46524 13.8148L4.21592 14.5693C4.27859 14.6317 4.36323 14.6667 4.45144 14.6667C4.53965 14.6667 4.62428 14.6317 4.68696 14.5693L6.09417 13.1539C6.2515 13.0125 6.45204 12.9291 6.6628 12.9174H9.29015C9.50085 12.9291 9.70129 13.0125 9.85847 13.1539L11.2663 14.5693C11.329 14.6317 11.4135 14.6667 11.5017 14.6667C11.5899 14.6667 11.6745 14.6317 11.7371 14.5693L12.4878 13.8148C12.55 13.7519 12.585 13.6667 12.585 13.578C12.585 13.4892 12.55 13.4041 12.4878 13.3411L10.5145 11.3586C10.4519 11.2962 10.3673 11.2613 10.2792 11.2613C10.1911 11.2613 10.1064 11.2962 10.0438 11.3586L9.85766 11.5461Z" fill="#FF00B8"/>
<path d="M11.5612 6.11844C11.7023 6.27662 11.7855 6.47847 11.797 6.6906V9.33031C11.7854 9.54233 11.7022 9.74402 11.5612 9.90201L11.3752 10.0893C11.3131 10.1522 11.2782 10.2372 11.2782 10.3259C11.2782 10.4145 11.3131 10.4996 11.3752 10.5624L13.3479 12.5446C13.4104 12.6072 13.4951 12.6423 13.5833 12.6423C13.6716 12.6423 13.7562 12.6072 13.8188 12.5446L14.5694 11.7897C14.6317 11.7268 14.6667 11.6418 14.6667 11.5531C14.6667 11.4644 14.6317 11.3793 14.5694 11.3165L13.1622 9.90176C13.0211 9.74377 12.9379 9.54207 12.9264 9.33006L12.9267 6.69035C12.9381 6.47823 13.0211 6.27637 13.1622 6.11819L14.5694 4.70352C14.6317 4.64081 14.6667 4.55581 14.6667 4.4672C14.6667 4.37859 14.6317 4.2936 14.5694 4.23089L13.8188 3.47595C13.7878 3.44488 13.7511 3.42023 13.7108 3.40341C13.6703 3.38659 13.6271 3.37793 13.5833 3.37793C13.5396 3.37793 13.4963 3.38659 13.4559 3.40341C13.4155 3.42023 13.3788 3.44488 13.3479 3.47595L11.3752 5.45801C11.3131 5.5209 11.2782 5.60595 11.2782 5.69461C11.2782 5.78326 11.3131 5.86831 11.3752 5.9312L11.5612 6.11844Z" fill="#FF00B8"/>
<path d="M6.14144 4.45384C6.29858 4.31219 6.49913 4.22872 6.70989 4.21724H9.33671C9.54741 4.22892 9.74785 4.31237 9.90509 4.45384L10.0914 4.64108C10.1223 4.67215 10.159 4.69679 10.1994 4.71361C10.2397 4.73042 10.283 4.73908 10.3267 4.73908C10.3704 4.73908 10.4137 4.73042 10.454 4.71361C10.4944 4.69679 10.5311 4.67215 10.562 4.64108L12.5343 2.65858C12.5965 2.59564 12.6315 2.5105 12.6315 2.42176C12.6315 2.33302 12.5965 2.24788 12.5343 2.18494L11.7837 1.43133C11.7212 1.36859 11.6365 1.33334 11.5482 1.33334C11.4598 1.33334 11.3751 1.36859 11.3127 1.43133L9.90516 2.84601C9.74791 2.98748 9.54747 3.07092 9.33677 3.0826H6.70989C6.49913 3.07112 6.29858 2.98765 6.14144 2.84601L4.73393 1.43133C4.67125 1.36897 4.58663 1.33399 4.49843 1.33399C4.41025 1.33399 4.32562 1.36897 4.26294 1.43133L3.51227 2.18582C3.45004 2.24875 3.4151 2.33388 3.4151 2.42261C3.4151 2.51134 3.45004 2.59646 3.51227 2.65939L5.48417 4.64102C5.54664 4.70376 5.63134 4.739 5.71966 4.739C5.80797 4.739 5.89268 4.70376 5.95515 4.64102L6.14144 4.45384Z" fill="#FF00B8"/>
</svg>
